<?xml version="1.0" encoding="UTF-8"?><svg id="Camada_2" xmlns="http://www.w3.org/2000/svg" viewBox="0 0 2649.29 524.21"><defs><style>.cls-1,.cls-2{fill-rule:evenodd;}.cls-1,.cls-3{fill:#2b99e3;}.cls-2,.cls-4{fill:#05629f;}</style></defs><g id="Layer_1"><g><g><path class="cls-1" d="m58.38,0h490.24c11.91,0,21.65,9.74,21.65,21.65v240.79c0,102.29-69.52,177.77-156.38,221.54-1.57-2.34-3.29-4.6-5.15-6.78l-70.9-83.32c60.55-23.61,119.23-67.71,119.23-131.44v-113.85c0-19.55-15.84-35.39-35.39-35.39H148.58c-19.55,0-35.39,15.84-35.39,35.39v113.85c0,62.39,58.73,106.69,118.83,130.73l-72.23,84.88c-1.4,1.64-2.67,3.31-3.83,4.99C70,439.13,0,364.01,0,262.44V21.65C0,9.74,9.74,0,21.65,0h36.73Z"/><path class="cls-2" d="m188.52,502.51l87.23-102.51c4.88-5.74,13.19-5.35,18.47.85l85.78,100.8c16.1,18.92-3.15,22.56-14.18,22.56h-166.82c-8.97,0-21.76-8.45-10.48-21.71"/></g><g><polygon class="cls-4" points="1773.45 170.12 1773.45 237.86 1864.4 237.86 1864.4 280.81 1773.45 280.81 1773.45 352.41 1876.01 352.41 1876.01 396.53 1719.26 396.53 1719.26 126 1876.01 126 1876.01 170.12 1773.45 170.12"/><polygon class="cls-3" points="1366.29 396.53 1322.17 329.97 1283.08 396.53 1225.03 396.53 1295.08 288.94 1224.25 182.12 1285.41 182.12 1329.14 248.3 1368.62 182.12 1426.67 182.12 1356.23 288.94 1427.44 396.53 1366.29 396.53"/><polygon class="cls-3" points="955.65 396.53 901.47 396.53 778.78 211.15 778.78 396.53 724.6 396.53 724.6 126 778.78 126 901.47 311.78 901.47 126 955.65 126 955.65 396.53"/><path class="cls-4" d="m2079.59,110.14v101.79c-7.48-10.07-17.55-18.13-30.19-24.19-12.65-6.06-25.93-9.09-39.86-9.09-18.32,0-34.96,4.51-49.93,13.54-14.97,9.03-26.77,21.93-35.41,38.7-8.64,16.77-12.97,35.99-12.97,57.67s4.32,41.35,12.97,58.25c8.64,16.9,20.45,30,35.41,39.28,14.97,9.29,31.48,13.93,49.54,13.93,16,0,30.06-3.23,42.19-9.68,12.13-6.45,21.55-14.97,28.26-25.54v31.74h54.95V110.14h-54.95Zm-7.35,213.06c-5.16,9.42-12.13,16.64-20.9,21.67-8.77,5.03-18.19,7.54-28.25,7.54s-19.03-2.58-27.67-7.74c-8.65-5.16-15.61-12.58-20.9-22.25-5.29-9.67-7.93-20.96-7.93-33.86s2.64-24.06,7.93-33.48c5.29-9.42,12.19-16.58,20.71-21.48,8.52-4.9,17.81-7.35,27.87-7.35s19.48,2.52,28.25,7.55c8.77,5.03,15.74,12.25,20.9,21.67,5.16,9.42,7.74,20.71,7.74,33.87s-2.58,24.45-7.74,33.86Z"/><path class="cls-4" d="m2649.29,284.69c0-20.9-4.45-39.41-13.35-55.54-8.9-16.13-21.41-28.58-37.54-37.35-16.13-8.77-34.38-13.16-54.76-13.16s-39.86,4.51-56.12,13.54c-16.26,9.03-28.9,21.93-37.93,38.7-9.03,16.77-13.55,36.25-13.55,58.44s4.58,41.28,13.74,58.05c9.16,16.77,21.93,29.74,38.32,38.9,16.38,9.16,34.9,13.74,55.54,13.74,25.54,0,47.09-6.65,64.63-19.93,17.55-13.29,29.42-30.25,35.61-50.89h-58.44c-8.51,17.29-22.83,25.93-42.96,25.93-13.93,0-25.67-4.38-35.22-13.16-9.55-8.77-14.97-20.9-16.26-36.38h156.75c1.03-6.19,1.55-13.16,1.55-20.9Zm-157.91-15.48c2.06-14.45,7.68-25.74,16.84-33.86,9.16-8.13,20.45-12.19,33.86-12.19,14.19,0,26.19,4.19,35.99,12.58,9.8,8.39,14.84,19.55,15.09,33.48h-101.79Z"/><path class="cls-4" d="m2342.37,182.12v30.58c-6.97-10.06-16.51-18.25-28.64-24.58-12.12-6.32-26.19-9.48-42.19-9.48-18.32,0-34.9,4.51-49.73,13.54-14.83,9.03-26.57,21.93-35.22,38.7-8.64,16.77-12.96,35.99-12.96,57.67s4.32,41.35,12.96,58.25c8.64,16.9,20.45,30,35.41,39.28,14.97,9.29,31.48,13.93,49.54,13.93,15.74,0,29.74-3.36,41.99-10.06,12.25-6.71,21.87-15.09,28.83-25.16v33.28c0,19.09-4.9,33.35-14.71,42.76-9.8,9.42-22.57,14.13-38.32,14.13-13.41,0-24.83-2.9-34.25-8.71-9.42-5.8-15.55-13.61-18.38-23.41h-53.8c2.58,24.51,13.61,43.86,33.09,58.05,19.48,14.19,44.45,21.29,74.89,21.29,22.71,0,42.06-4.58,58.05-13.74,16-9.16,28-21.55,35.99-37.16,8-15.61,12-33.35,12-53.21v-215.96h-54.57Zm-7.74,141.07c-5.16,9.42-12.13,16.64-20.9,21.67-8.77,5.03-18.19,7.54-28.25,7.54s-19.03-2.58-27.67-7.74c-8.64-5.16-15.61-12.58-20.9-22.25-5.29-9.67-7.93-20.96-7.93-33.86s2.64-24.06,7.93-33.48c5.29-9.42,12.19-16.58,20.71-21.48,8.52-4.9,17.81-7.35,27.87-7.35s19.48,2.52,28.25,7.55c8.77,5.03,15.74,12.25,20.9,21.67,5.16,9.42,7.74,20.71,7.74,33.87s-2.58,24.45-7.74,33.86Z"/><path class="cls-3" d="m1611.67,182.12v30.58c-7.22-9.81-16.83-17.93-28.83-24.38-12-6.45-25.99-9.67-41.99-9.67-18.32,0-34.9,4.51-49.73,13.54-14.83,9.03-26.58,21.93-35.22,38.7-8.64,16.77-12.96,35.99-12.96,57.67s4.32,41.35,12.96,58.25c8.64,16.9,20.38,30,35.22,39.28,14.84,9.29,31.29,13.93,49.35,13.93,16,0,30.12-3.29,42.38-9.87,12.25-6.58,21.87-14.9,28.83-24.96v31.35h54.57v-214.41h-54.57Zm-7.74,141.07c-5.16,9.42-12.13,16.64-20.9,21.67-8.77,5.03-18.19,7.54-28.25,7.54s-19.03-2.58-27.67-7.74c-8.65-5.16-15.61-12.58-20.9-22.25-5.29-9.67-7.93-20.96-7.93-33.86s2.64-24.06,7.93-33.48c5.29-9.42,12.19-16.58,20.71-21.48,8.52-4.9,17.81-7.35,27.87-7.35s19.48,2.52,28.25,7.55c8.77,5.03,15.74,12.25,20.9,21.67,5.16,9.42,7.74,20.71,7.74,33.87s-2.58,24.45-7.74,33.86Z"/><path class="cls-3" d="m1208.39,284.69c0-20.9-4.45-39.41-13.35-55.54-8.9-16.13-21.42-28.58-37.54-37.35-16.13-8.77-34.38-13.16-54.76-13.16s-39.86,4.51-56.12,13.54c-16.26,9.03-28.9,21.93-37.93,38.7-9.03,16.77-13.55,36.25-13.55,58.44s4.58,41.28,13.74,58.05c9.16,16.77,21.93,29.74,38.32,38.9,16.38,9.16,34.9,13.74,55.54,13.74,25.54,0,47.09-6.65,64.63-19.93,17.55-13.29,29.41-30.25,35.61-50.89h-58.44c-8.51,17.29-22.84,25.93-42.96,25.93-13.93,0-25.67-4.38-35.22-13.16-9.55-8.77-14.97-20.9-16.26-36.38h156.75c1.03-6.19,1.55-13.16,1.55-20.9Zm-157.91-15.48c2.06-14.45,7.68-25.74,16.84-33.86,9.16-8.13,20.45-12.19,33.86-12.19,14.19,0,26.19,4.19,35.99,12.58,9.81,8.39,14.84,19.55,15.09,33.48h-101.79Z"/></g></g></g></svg>