<?xml version="1.0" encoding="UTF-8" standalone="no"?>
<svg
   version="1.1"
   viewBox="1840.84 1579.63 1571.37 1444.49"
   xmlns="http://www.w3.org/2000/svg">
  <path
     d="m 15012.7,28152.8 h 10131.5 c 246.1,0 447.4,-201.4 447.4,-447.4 v -759.1 -719.2 -3498 c 0,-2114.1 -1436.7,-3673.9 -3231.9,-4578.5 -32.4,48.3 -68,95.2 -106.3,140.2 l -1465.3,1721.9 c 1251.4,487.9 2464.2,1399.3 2464.2,2716.4 V 25082 c 0,404 -327.4,731.4 -731.4,731.4 H 16877 c -404,0 -731.4,-327.4 -731.4,-731.4 v -2352.9 c 0,-1289.5 1213.8,-2205 2455.7,-2701.8 l -1492.8,-1754.2 c -28.9,-33.9 -55.2,-68.3 -79.3,-103.1 -1776.3,907.4 -3222.9,2460 -3222.9,4559.1 v 3498 719.2 759.1 c 0,246 201.3,447.4 447.3,447.4 h 759.1"
     style="fill:#5196d7;fill-opacity:1;fill-rule:evenodd;stroke:none"
     transform="matrix(0.13333333,0,0,-0.13333333,0,5333.3333)" />
  <path
     d="m 17702.3,17767.7 1802.8,2118.5 c 100.8,118.5 272.5,110.6 381.7,-17.6 l 1772.7,-2083.2 c 332.8,-391.1 -65.1,-466.3 -292.9,-466.3 h -3447.7 c -185.4,0 -449.6,174.8 -216.6,448.6"
     style="fill:#2a5ea6;fill-opacity:1;fill-rule:evenodd;stroke:none"
     transform="matrix(0.13333333,0,0,-0.13333333,0,5333.3333)" />
</svg>
